<svg width="469" height="159" viewBox="0 0 469 159" fill="none" xmlns="http://www.w3.org/2000/svg">
<g filter="url(#filter0_d_60_26029)">
<mask id="path-1-inside-1_60_26029" fill="white">
<path fill-rule="evenodd" clip-rule="evenodd" d="M449 18.4751C449 17.3705 448.105 16.4751 447 16.4751H22C20.8954 16.4751 20 17.3705 20 18.4751V120.475C20 121.58 20.8954 122.475 22 122.475H416.446C417.061 122.475 417.642 122.758 418.021 123.243L426.425 133.986C427.225 135.01 428.775 135.01 429.575 133.986L437.979 123.243C438.358 122.758 438.939 122.475 439.554 122.475H447C448.105 122.475 449 121.58 449 120.475V18.4751Z"/>
</mask>
<path fill-rule="evenodd" clip-rule="evenodd" d="M449 18.4751C449 17.3705 448.105 16.4751 447 16.4751H22C20.8954 16.4751 20 17.3705 20 18.4751V120.475C20 121.58 20.8954 122.475 22 122.475H416.446C417.061 122.475 417.642 122.758 418.021 123.243L426.425 133.986C427.225 135.01 428.775 135.01 429.575 133.986L437.979 123.243C438.358 122.758 438.939 122.475 439.554 122.475H447C448.105 122.475 449 121.58 449 120.475V18.4751Z" fill="white"/>
<path d="M437.979 123.243L438.766 123.859L437.979 123.243ZM426.425 133.986L425.637 134.602L426.425 133.986ZM429.575 133.986L428.788 133.37L429.575 133.986ZM418.021 123.243L417.234 123.859L418.021 123.243ZM22 17.4751H447V15.4751H22V17.4751ZM21 120.475V18.4751H19V120.475H21ZM416.446 121.475H22V123.475H416.446V121.475ZM427.212 133.37L418.809 122.627L417.234 123.859L425.637 134.602L427.212 133.37ZM437.191 122.627L428.788 133.37L430.363 134.602L438.766 123.859L437.191 122.627ZM447 121.475H439.554V123.475H447V121.475ZM448 18.4751V120.475H450V18.4751H448ZM447 123.475C448.657 123.475 450 122.132 450 120.475H448C448 121.027 447.552 121.475 447 121.475V123.475ZM438.766 123.859C438.956 123.617 439.246 123.475 439.554 123.475V121.475C438.631 121.475 437.76 121.9 437.191 122.627L438.766 123.859ZM425.637 134.602C426.838 136.138 429.162 136.138 430.363 134.602L428.788 133.37C428.387 133.882 427.613 133.882 427.212 133.37L425.637 134.602ZM416.446 123.475C416.754 123.475 417.044 123.617 417.234 123.859L418.809 122.627C418.24 121.9 417.369 121.475 416.446 121.475V123.475ZM19 120.475C19 122.132 20.3431 123.475 22 123.475V121.475C21.4477 121.475 21 121.027 21 120.475H19ZM447 17.4751C447.552 17.4751 448 17.9228 448 18.4751H450C450 16.8183 448.657 15.4751 447 15.4751V17.4751ZM22 15.4751C20.3431 15.4751 19 16.8182 19 18.4751H21C21 17.9228 21.4477 17.4751 22 17.4751V15.4751Z" fill="#E8AA31" mask="url(#path-1-inside-1_60_26029)"/>
</g>
<defs>
<filter id="filter0_d_60_26029" x="0" y="0.475098" width="469" height="158.279" filterUnits="userSpaceOnUse" color-interpolation-filters="sRGB">
<feFlood flood-opacity="0" result="BackgroundImageFix"/>
<feColorMatrix in="SourceAlpha" type="matrix" values="0 0 0 0 0 0 0 0 0 0 0 0 0 0 0 0 0 0 127 0" result="hardAlpha"/>
<feOffset dy="4"/>
<feGaussianBlur stdDeviation="10"/>
<feColorMatrix type="matrix" values="0 0 0 0 0.0784314 0 0 0 0 0.0784314 0 0 0 0 0.0784314 0 0 0 0.1 0"/>
<feBlend mode="normal" in2="BackgroundImageFix" result="effect1_dropShadow_60_26029"/>
<feBlend mode="normal" in="SourceGraphic" in2="effect1_dropShadow_60_26029" result="shape"/>
</filter>
</defs>
</svg>
